<svg width="92" height="25" viewBox="0 0 92 25" fill="none" xmlns="http://www.w3.org/2000/svg">
<path d="M37.5275 15.2546C37.5275 16.395 37.2599 17.2328 36.7246 17.7681C36.1893 18.3033 35.3631 18.571 34.246 18.571C33.1406 18.571 31.9653 18.5128 30.7202 18.3964V16.0401C31.6279 16.0982 32.5588 16.1273 33.5129 16.1273C33.7806 16.1273 33.99 16.0517 34.1413 15.9004C34.3042 15.7375 34.3857 15.5222 34.3857 15.2546V8.62187H32.1166V6.17822H37.5275V15.2546Z" fill="#BBC3CF"/>
<path d="M45.3814 18.3964H39.0977V15.9528H40.6686V8.62187H39.0977V6.17822H45.3814V8.62187H43.8105V15.9528H45.3814V18.3964Z" fill="#BBC3CF"/>
<path d="M57.4237 18.1346C54.7008 18.4255 52.199 18.571 49.9182 18.571C48.7779 18.571 47.94 18.3033 47.4048 17.7681C46.8695 17.2328 46.6018 16.395 46.6018 15.2546V9.66914C46.6018 8.44732 46.8753 7.56295 47.4222 7.01604C47.9808 6.4575 48.8709 6.17822 50.0928 6.17822H56.3764V8.62187H50.7909C50.0928 8.62187 49.7437 8.97096 49.7437 9.66914V15.2546C49.7437 15.5222 49.8193 15.7375 49.9706 15.9004C50.1335 16.0517 50.3488 16.1273 50.6164 16.1273C51.9546 16.1273 53.1764 16.0982 54.2819 16.0401V13.5092H52.0128V11.4146H57.4237V18.1346Z" fill="#BBC3CF"/>
<path d="M69.6453 18.1346C66.9224 18.4255 64.4206 18.571 62.1398 18.571C60.9995 18.571 60.1617 18.3033 59.6264 17.7681C59.0911 17.2328 58.8235 16.395 58.8235 15.2546V9.66914C58.8235 8.44732 59.0969 7.56295 59.6438 7.01604C60.2024 6.4575 61.0926 6.17822 62.3144 6.17822H68.598V8.62187H63.0126C62.3144 8.62187 61.9653 8.97096 61.9653 9.66914V15.2546C61.9653 15.5222 62.0409 15.7375 62.1922 15.9004C62.3551 16.0517 62.5704 16.1273 62.838 16.1273C64.1762 16.1273 65.398 16.0982 66.5035 16.0401V13.5092H64.2344V11.4146H69.6453V18.1346Z" fill="#BBC3CF"/>
<path d="M74.536 15.9528H80.9069V18.3964H71.3942V6.17822H74.536V15.9528Z" fill="#BBC3CF"/>
<path d="M91.8201 18.3964H82.1328V6.17822H91.8201V8.62187H85.2747V10.9782H90.4238V13.4219H85.2747V15.9528H91.8201V18.3964Z" fill="#BBC3CF"/>
<g clip-path="url(#clip0_336_1589)">
<path fill-rule="evenodd" clip-rule="evenodd" d="M1.32803 4.83427C1.68236 4.8358 2.02171 4.97725 2.27226 5.22779C2.52281 5.47834 2.66426 5.81771 2.6658 6.17204C2.67518 6.51944 2.8198 6.84946 3.06884 7.09186C3.31788 7.33426 3.65167 7.4699 3.9992 7.4699C4.34673 7.4699 4.68052 7.33426 4.92955 7.09186C5.17859 6.84946 5.32321 6.51944 5.3326 6.17204V2.00696C5.33413 1.65263 5.47554 1.31325 5.72609 1.06271C5.97664 0.812157 6.31604 0.670726 6.67036 0.669189C7.02333 0.672516 7.36074 0.814801 7.60951 1.06521C7.85828 1.31562 7.99834 1.65398 7.99934 2.00696V10.7516C7.99453 10.9297 8.02547 11.107 8.09032 11.273C8.15516 11.439 8.25263 11.5903 8.37692 11.718C8.50121 11.8457 8.64981 11.9472 8.81398 12.0165C8.97815 12.0858 9.15454 12.1215 9.33274 12.1215C9.51094 12.1215 9.68734 12.0858 9.85151 12.0165C10.0157 11.9472 10.1643 11.8457 10.2886 11.718C10.4129 11.5903 10.5103 11.439 10.5752 11.273C10.64 11.107 10.671 10.9297 10.6661 10.7516V6.17204C10.6677 5.81771 10.8091 5.47834 11.0597 5.22779C11.3102 4.97725 11.6496 4.8358 12.0039 4.83427C12.3569 4.83759 12.6943 4.97989 12.9431 5.2303C13.1918 5.48071 13.3319 5.81906 13.3329 6.17204V10.7516C13.3329 11.1051 13.4734 11.4441 13.7233 11.6941C13.9733 11.9441 14.3123 12.0845 14.6658 12.0845C15.0193 12.0845 15.3584 11.9441 15.6083 11.6941C15.8583 11.4441 15.9987 11.1051 15.9987 10.7516V2.00696C16.0003 1.65247 16.1419 1.31294 16.3926 1.06236C16.6434 0.811785 16.983 0.67047 17.3375 0.669189C17.6908 0.670991 18.029 0.812815 18.278 1.06358C18.5269 1.31435 18.6663 1.65361 18.6655 2.00696V6.17204C18.6749 6.51944 18.8195 6.84946 19.0685 7.09186C19.3176 7.33426 19.6514 7.4699 19.9989 7.4699C20.3464 7.4699 20.6803 7.33426 20.9293 7.09186C21.1783 6.84946 21.3229 6.51944 21.3323 6.17204C21.3338 5.81754 21.4754 5.47803 21.7262 5.22745C21.9769 4.97687 22.3166 4.83555 22.671 4.83427C23.0244 4.83607 23.3626 4.9779 23.6116 5.22867C23.8605 5.47944 23.9999 5.81868 23.9991 6.17204V19.1761C23.9978 19.528 23.8575 19.865 23.6087 20.1138C23.3599 20.3626 23.0229 20.5029 22.671 20.5042C22.3181 20.5034 21.9796 20.3636 21.729 20.115C21.4784 19.8664 21.3359 19.5291 21.3323 19.1761C21.3371 18.998 21.3062 18.8207 21.2414 18.6547C21.1765 18.4887 21.079 18.3374 20.9548 18.2097C20.8305 18.082 20.6818 17.9805 20.5177 17.9112C20.3535 17.8419 20.1771 17.8062 19.9989 17.8062C19.8207 17.8062 19.6443 17.8419 19.4802 17.9112C19.316 17.9805 19.1674 18.082 19.0431 18.2097C18.9188 18.3374 18.8213 18.4887 18.7565 18.6547C18.6916 18.8207 18.6607 18.998 18.6655 19.1761V23.3363C18.6658 23.5109 18.6316 23.6837 18.565 23.845C18.4983 24.0063 18.4005 24.1529 18.2772 24.2763C18.1538 24.3998 18.0073 24.4977 17.8461 24.5644C17.6848 24.6312 17.512 24.6655 17.3375 24.6654C16.984 24.6659 16.6448 24.5263 16.394 24.2772C16.1433 24.0281 16.0015 23.6898 15.9997 23.3363V14.58C15.9997 14.2265 15.8593 13.8875 15.6093 13.6375C15.3594 13.3876 15.0203 13.2471 14.6668 13.2471C14.3133 13.2471 13.9743 13.3876 13.7243 13.6375C13.4743 13.8875 13.3339 14.2265 13.3339 14.58V19.1693C13.3308 19.5208 13.1898 19.8569 12.9412 20.1054C12.6926 20.3538 12.3564 20.4946 12.0049 20.4974C11.6521 20.4963 11.3139 20.3564 11.0635 20.1078C10.8131 19.8593 10.6707 19.5221 10.6671 19.1693V14.58C10.6578 14.2326 10.5131 13.9026 10.2641 13.6602C10.0151 13.4178 9.68127 13.2822 9.33374 13.2822C8.98621 13.2822 8.65237 13.4178 8.40334 13.6602C8.1543 13.9026 8.00973 14.2326 8.00034 14.58V23.3363C7.99932 23.6885 7.85895 24.026 7.60994 24.275C7.36092 24.524 7.02348 24.6643 6.67131 24.6654C6.31779 24.6661 5.9784 24.5266 5.72761 24.2775C5.47681 24.0283 5.33509 23.6899 5.33355 23.3363V19.1722C5.33836 18.9941 5.30742 18.8168 5.24257 18.6508C5.17773 18.4848 5.08031 18.3335 4.95602 18.2058C4.83172 18.0781 4.68308 17.9767 4.51891 17.9073C4.35474 17.838 4.17835 17.8023 4.00015 17.8023C3.82195 17.8023 3.64555 17.838 3.48138 17.9073C3.31721 17.9767 3.16862 18.0781 3.04433 18.2058C2.92003 18.3335 2.82257 18.4848 2.75772 18.6508C2.69288 18.8168 2.66194 18.9941 2.66675 19.1722C2.66317 19.525 2.52079 19.8622 2.27041 20.1108C2.02002 20.3593 1.68179 20.4993 1.32898 20.5003C0.977536 20.4975 0.641292 20.3567 0.392685 20.1083C0.144077 19.8598 0.00305168 19.5237 0 19.1722V6.17204C0.00100819 5.81906 0.141063 5.48071 0.389834 5.2303C0.638606 4.97989 0.976019 4.83759 1.32898 4.83427H1.32803ZM5.3326 10.0073C5.33741 9.82917 5.30647 9.65187 5.24162 9.48589C5.17678 9.31991 5.07931 9.16861 4.95502 9.04091C4.83073 8.91321 4.68213 8.81172 4.51796 8.74242C4.35379 8.67311 4.1774 8.63741 3.9992 8.63741C3.821 8.63741 3.6446 8.67311 3.48043 8.74242C3.31626 8.81172 3.16762 8.91321 3.04333 9.04091C2.91904 9.16861 2.82162 9.31991 2.75677 9.48589C2.69193 9.65187 2.66099 9.82917 2.6658 10.0073V15.3409C2.67518 15.6883 2.8198 16.0183 3.06884 16.2607C3.31788 16.5031 3.65167 16.6387 3.9992 16.6387C4.34673 16.6387 4.68052 16.5031 4.92955 16.2607C5.17859 16.0183 5.32321 15.6883 5.3326 15.3409V10.0073ZM18.6616 15.3409V10.0073C18.6568 9.82917 18.6877 9.65187 18.7526 9.48589C18.8174 9.31991 18.9149 9.16861 19.0392 9.04091C19.1635 8.91321 19.3121 8.81172 19.4763 8.74242C19.6404 8.67311 19.8168 8.63741 19.995 8.63741C20.1732 8.63741 20.3496 8.67311 20.5138 8.74242C20.6779 8.81172 20.8266 8.91321 20.9509 9.04091C21.0751 9.16861 21.1726 9.31991 21.2375 9.48589C21.3023 9.65187 21.3332 9.82917 21.3284 10.0073V15.3409C21.319 15.6883 21.1744 16.0183 20.9254 16.2607C20.6764 16.5031 20.3426 16.6387 19.995 16.6387C19.6475 16.6387 19.3137 16.5031 19.0646 16.2607C18.8156 16.0183 18.671 15.6883 18.6616 15.3409Z" fill="#BBC3CF"/>
</g>
<defs>
<clipPath id="clip0_336_1589">
<rect width="24.0001" height="24.0001" fill="white" transform="translate(0 0.669189)"/>
</clipPath>
</defs>
</svg>
