<svg width="97" height="25" viewBox="0 0 97 25" fill="none" xmlns="http://www.w3.org/2000/svg">
<g clip-path="url(#clip0_336_1591)">
<path d="M22.0049 2.05307C22.1449 2.10235 22.2668 2.19248 22.3549 2.31182C22.4431 2.43115 22.4934 2.57418 22.4994 2.72242C22.5754 3.51406 22.6078 4.30928 22.5964 5.10448C22.5881 5.46928 22.5797 5.83407 22.5554 6.19887C22.4182 6.14197 22.2885 6.08508 22.1505 6.03153C21.8024 5.89431 21.4619 5.76463 21.113 5.64248C21.1214 5.45673 21.1297 5.27851 21.1297 5.09193C21.1373 4.50039 21.1214 3.90048 21.0728 3.29305C20.5056 3.11483 19.914 2.95251 19.3158 2.80693C18.5628 2.62872 17.8097 2.4823 17.0467 2.37688C16.6175 2.32082 16.2041 2.27145 15.8075 2.23129C15.4109 2.19113 14.9884 2.16686 14.5592 2.14762C14.2245 2.13925 13.9108 2.13172 13.5711 2.13172L13.0766 2.13925C12.9302 2.13925 12.7603 2.14762 12.5821 2.14762C12.1529 2.16435 11.7396 2.19615 11.3338 2.23129C10.928 2.26643 10.5239 2.32082 10.0946 2.37688C9.34162 2.4823 8.57939 2.62788 7.82553 2.80693C7.22562 2.95251 6.64245 3.11483 6.06848 3.29305C5.96975 4.62495 6.00509 5.9634 6.17392 7.28824C6.26352 8.02937 6.39339 8.76507 6.56298 9.49208C6.66003 9.9054 6.77382 10.3187 6.89765 10.7153L6.90603 10.7479L6.91354 10.7806L6.92192 10.8132L6.93781 10.845L6.94619 10.8776L6.95452 10.9103L6.9629 10.9429L6.99468 11.0316V11.04L7.00306 11.0717L7.05997 11.2257L7.06748 11.2583L7.11688 11.388L7.12439 11.4123C7.37465 12.1379 7.66431 12.8493 7.99205 13.5433L8.00794 13.5676L8.01632 13.5927L8.02383 13.6086L8.04054 13.6329L8.0481 13.6571L8.05648 13.6814L8.07237 13.6973C8.19452 13.9483 8.32338 14.1993 8.4539 14.4503C8.55096 14.6126 8.63961 14.785 8.72914 14.9364C8.83456 15.1233 8.93191 15.2853 9.02116 15.4225C9.29643 15.8685 9.5876 16.3061 9.89633 16.7278C10.2051 17.1495 10.5197 17.5544 10.8686 17.9594C10.9985 18.1133 11.1444 18.2754 11.3062 18.4455C11.4601 18.6128 11.6057 18.7802 11.7438 18.9232C12.1002 19.288 12.4725 19.6369 12.8457 19.9766L12.9996 20.1063C12.8942 20.19 12.7888 20.2737 12.6758 20.3573C12.3838 20.5757 12.0843 20.7865 11.7839 20.9974C10.1649 19.546 8.77201 17.8607 7.65149 15.9973V15.989L7.64312 15.9814L7.63478 15.9731C7.57036 15.8677 7.51343 15.7622 7.45653 15.6735C7.35948 15.4953 7.25406 15.3163 7.16537 15.1464C6.89763 14.6603 6.65418 14.1583 6.41991 13.6312C6.18563 13.1041 5.98232 12.5862 5.79574 12.0674C5.5351 11.3341 5.31332 10.5876 5.13137 9.83094C4.58089 7.50295 4.4167 5.10032 4.64529 2.71908C4.65214 2.57062 4.70374 2.4277 4.79335 2.30913C4.88295 2.19056 5.00636 2.10188 5.1473 2.05475C5.91706 1.79537 6.70353 1.56863 7.49755 1.37368C8.27567 1.19547 9.07722 1.03901 9.89633 0.920196C10.3147 0.863301 10.7548 0.814774 11.2167 0.774613C11.6626 0.733615 12.1002 0.701821 12.5294 0.685087C12.6917 0.685087 12.8641 0.676722 13.0481 0.676722L13.5753 0.669189L14.1016 0.676722C14.2881 0.676722 14.4663 0.685087 14.6203 0.685087C15.0579 0.701821 15.4955 0.733615 15.9414 0.774613C16.4033 0.814774 16.8409 0.863301 17.2542 0.920196C18.08 1.04152 18.8824 1.19547 19.6605 1.37368C20.447 1.56863 21.2326 1.79203 22.0108 2.05475L22.0049 2.05307ZM17.2559 16.7286C17.5479 16.3153 17.8415 15.8919 18.1068 15.456C18.1983 15.2916 18.3485 15.1678 18.5273 15.1092C18.7061 15.0505 18.9004 15.0614 19.0715 15.1397C20.4796 15.8128 21.7578 16.7291 22.8475 17.8464C22.9749 17.964 23.057 18.1226 23.0791 18.2946C23.1013 18.4665 23.0623 18.6408 22.9688 18.7869C22.742 19.1433 22.491 19.5156 22.24 19.8804C21.989 20.2452 21.7129 20.6016 21.446 20.9422C21.2511 21.1932 21.0402 21.4526 20.8135 21.7119C20.6193 21.9387 20.4001 22.1897 20.1575 22.4574C19.817 22.8306 19.4882 23.1703 19.1535 23.5024H19.1451C18.8213 23.8271 18.4758 24.1433 18.116 24.4588C18.0099 24.5622 17.8752 24.6314 17.7293 24.6575C17.5835 24.6836 17.4331 24.6654 17.2977 24.6052C16.2311 24.1156 15.2042 23.5438 14.2262 22.895C14.3559 22.798 14.4856 22.7009 14.6153 22.5955C14.8905 22.3763 15.1666 22.1579 15.4252 21.9261C16.0861 22.3462 16.7708 22.7275 17.4759 23.0682C17.6943 22.8657 17.9051 22.6632 18.1243 22.4524C18.464 22.1177 18.7803 21.7964 19.0723 21.4718C19.2664 21.2693 19.4689 21.0267 19.6965 20.7673C19.8906 20.5322 20.0931 20.2887 20.288 20.0302C20.5549 19.7056 20.7984 19.3734 21.0335 19.0328C21.1632 18.8655 21.2845 18.6764 21.4058 18.4982C21.0411 18.1485 20.651 17.8264 20.2386 17.5343C19.8481 17.2511 19.4395 16.9937 19.0154 16.7637C18.8289 17.0474 18.6347 17.3235 18.4398 17.5904C18.1001 18.0606 17.7512 18.4982 17.3948 18.9199C17.2324 19.1056 17.0785 19.2763 16.9329 19.4386C16.8676 19.5223 16.7948 19.5926 16.7221 19.6729L16.7137 19.6813L16.7062 19.6896L16.6978 19.6972L16.6894 19.7055L16.6819 19.7139L16.6735 19.7223L16.6651 19.7298L16.6493 19.7465V19.7541C15.8755 20.569 15.0442 21.3274 14.1618 22.0232C12.8283 23.0471 11.3817 23.9146 9.85033 24.6085C9.71114 24.671 9.55605 24.6889 9.40629 24.6598C9.25653 24.6308 9.1194 24.5562 9.01364 24.4462C8.65638 24.1383 8.32421 23.8221 7.99205 23.5058C7.65737 23.182 7.32772 22.8364 6.98802 22.4608C6.73701 22.193 6.5186 21.942 6.32365 21.7153C6.10528 21.4559 5.89445 21.1965 5.69197 20.9455C5.42423 20.5975 5.16486 20.2486 4.90549 19.8838C4.64612 19.519 4.40348 19.1466 4.17674 18.7902C3.99768 18.5066 3.81191 18.2045 3.62533 17.8908C3.45799 17.5829 3.2848 17.275 3.12332 16.9704C2.91331 16.5813 2.71837 16.1839 2.53179 15.7873C2.34521 15.3907 2.18373 14.9925 2.01389 14.5792C1.70598 13.8261 1.43825 13.0564 1.20314 12.2699C0.968029 11.4834 0.773917 10.6902 0.617456 9.88784C0.586998 9.74005 0.603431 9.58644 0.664479 9.44844C0.725527 9.31045 0.828128 9.19495 0.957974 9.11808C1.9014 8.44748 2.89561 7.85136 3.93157 7.3351C3.97173 7.72416 4.02108 8.10485 4.08551 8.48555C4.10141 8.61523 4.12567 8.74491 4.14994 8.8746C3.46219 9.23429 2.79668 9.63496 2.15696 10.0744C2.28664 10.6819 2.44059 11.2734 2.61044 11.849C2.82965 12.5945 3.08905 13.3233 3.37269 14.0244C3.52664 14.4051 3.68811 14.7858 3.86633 15.1665C4.04454 15.5472 4.22358 15.9195 4.41769 16.2768C4.57164 16.5772 4.73398 16.8625 4.8963 17.152C5.05778 17.4197 5.23097 17.7034 5.4142 18.0029C5.64178 18.3593 5.86851 18.7082 6.10361 19.032C6.33872 19.3558 6.58974 19.7014 6.84912 20.0293C7.0516 20.2879 7.24572 20.5314 7.4482 20.7665C7.66741 21.0258 7.87825 21.2685 8.06399 21.471C8.36436 21.7956 8.67981 22.1194 9.02034 22.4516C9.23119 22.6624 9.45039 22.8649 9.6604 23.0598C10.8797 22.4733 12.0363 21.7646 13.1126 20.9447C14.69 19.7485 16.0849 18.3291 17.2534 16.7311L17.2559 16.7286ZM26.1783 9.11474C26.3077 9.19243 26.4104 9.30772 26.4726 9.44526C26.5347 9.58279 26.5535 9.73601 26.5264 9.88449C26.3641 10.6869 26.1699 11.4809 25.9348 12.2665C25.6997 13.0522 25.4328 13.8228 25.1325 14.5758C25.102 14.6509 25.058 14.7198 25.0027 14.7791C24.8756 14.9265 24.6956 15.0179 24.5016 15.0336C24.3076 15.0492 24.1152 14.9879 23.9661 14.8628C23.4186 14.3862 22.8391 13.9476 22.2317 13.55C21.6348 13.1596 21.012 12.8104 20.3675 12.505C20.1985 12.4287 20.064 12.2921 19.9907 12.1218C19.9173 11.9515 19.9103 11.7599 19.9709 11.5846C20.2133 10.9027 20.4161 10.2074 20.5783 9.50212C20.6511 9.22684 20.708 8.95074 20.7649 8.66543C20.9515 8.73822 21.1297 8.81185 21.3163 8.89218C21.5916 9.01433 21.8668 9.14318 22.1421 9.2737C22.1019 9.46781 22.0585 9.6544 22.0124 9.84098C21.8836 10.384 21.7372 10.9287 21.5673 11.4616C22.0694 11.721 22.5638 12.0122 23.0416 12.3201C23.4063 12.5636 23.7712 12.8221 24.1201 13.0898C24.2656 12.6849 24.4037 12.2716 24.525 11.8507C24.7032 11.2751 24.8488 10.6793 24.9869 10.0761C23.9235 9.34899 22.7917 8.72744 21.6075 8.22031C20.8781 7.90509 20.1314 7.63161 19.371 7.40119C18.6762 7.19134 17.97 7.02094 17.2559 6.89081C16.7538 6.80212 16.2351 6.72933 15.708 6.67244C15.1809 6.61554 14.663 6.58291 14.1442 6.56701L13.853 6.55865H13.2858L13.0021 6.56701C12.4834 6.58291 11.9563 6.61554 11.4375 6.67244C10.9188 6.72933 10.3925 6.80212 9.88212 6.89081C9.17679 7.0205 8.47227 7.19871 7.76694 7.40119C7.4992 7.48486 7.23231 7.56854 6.96457 7.66057C6.94031 7.50662 6.91604 7.36103 6.90014 7.20708C6.85162 6.85902 6.8165 6.51848 6.79474 6.16959C8.98106 5.44674 11.2692 5.07951 13.5719 5.08189C16.4203 5.0858 19.2408 5.64156 21.8777 6.71846C23.3985 7.35213 24.8421 8.1569 26.1808 9.11724L26.1783 9.11474ZM12.6775 15.5246C12.5562 15.3707 12.4508 15.2326 12.3537 15.1113C11.5826 14.0557 10.9279 12.9198 10.4009 11.7235C10.3281 11.562 10.2545 11.3997 10.19 11.2374C10.1256 11.0751 10.0762 10.9379 10.0227 10.7839C9.99951 10.7304 9.9832 10.6742 9.97416 10.6166C9.95689 10.5213 9.95877 10.4235 9.97968 10.329C10.0006 10.2344 10.0401 10.145 10.0959 10.0658C10.1518 9.9867 10.2228 9.91948 10.3049 9.8681C10.387 9.81671 10.4785 9.78218 10.5741 9.76651C10.728 9.73388 10.9087 9.70962 11.0928 9.68284L11.6191 9.60921C11.9437 9.57742 12.2675 9.55316 12.5997 9.52555C12.9318 9.49793 13.269 9.50129 13.5727 9.50129C13.8765 9.50129 14.2044 9.50881 14.5525 9.52555C14.8872 9.54981 15.2093 9.57407 15.5256 9.60921L16.0518 9.68284C16.2468 9.70711 16.4167 9.73137 16.579 9.76651C16.6204 9.77317 16.661 9.78382 16.7003 9.79831C16.8837 9.8645 17.0335 10.0005 17.117 10.1767C17.2005 10.3528 17.211 10.5549 17.1462 10.7387C17.081 10.9061 17.0165 11.0784 16.9513 11.2408C16.886 11.4031 16.8216 11.5654 16.7488 11.7269C16.4856 12.3232 16.1906 12.9049 15.8653 13.4697C15.5384 14.0385 15.1786 14.5878 14.7876 15.1146C14.666 15.2758 14.5609 15.4136 14.4722 15.528C14.3341 15.6953 14.2287 15.8359 14.1375 15.9329C14.109 15.9691 14.0761 16.0017 14.0396 16.03C13.966 16.092 13.8808 16.1387 13.789 16.1674C13.6971 16.1961 13.6005 16.2063 13.5047 16.1972C13.4089 16.1882 13.3159 16.1602 13.231 16.1148C13.1461 16.0694 13.0712 16.0076 13.0105 15.9329C12.8892 15.7949 12.7838 15.6652 12.6758 15.528L12.6775 15.5246Z" fill="#BBC3CF"/>
</g>
<path d="M34.3972 11.2029C34.9156 10.3965 35.8276 9.99328 37.1332 9.99328V11.7069C36.9796 11.6781 36.8404 11.6637 36.7156 11.6637C36.0148 11.6637 35.4676 11.8701 35.074 12.2829C34.6804 12.6861 34.4836 13.2717 34.4836 14.0397V17.7693H32.6836V10.0797H34.3972V11.2029Z" fill="#BBC3CF"/>
<path d="M45.8187 13.9677C45.8187 14.0925 45.8091 14.2701 45.7899 14.5005H39.7563C39.8619 15.0669 40.1355 15.5181 40.5771 15.8541C41.0283 16.1805 41.5851 16.3437 42.2475 16.3437C43.0923 16.3437 43.7883 16.0653 44.3355 15.5085L45.3003 16.6173C44.9547 17.0301 44.5179 17.3421 43.9899 17.5533C43.4619 17.7645 42.8667 17.8701 42.2043 17.8701C41.3595 17.8701 40.6155 17.7021 39.9723 17.3661C39.3291 17.0301 38.8299 16.5645 38.4747 15.9693C38.1291 15.3645 37.9563 14.6829 37.9563 13.9245C37.9563 13.1757 38.1243 12.5037 38.4603 11.9085C38.8059 11.3037 39.2811 10.8333 39.8859 10.4973C40.4907 10.1613 41.1723 9.99328 41.9307 9.99328C42.6795 9.99328 43.3467 10.1613 43.9323 10.4973C44.5275 10.8237 44.9883 11.2893 45.3147 11.8941C45.6507 12.4893 45.8187 13.1805 45.8187 13.9677ZM41.9307 11.4333C41.3547 11.4333 40.8651 11.6061 40.4619 11.9517C40.0683 12.2877 39.8283 12.7389 39.7419 13.3053H44.1051C44.0283 12.7485 43.7931 12.2973 43.3995 11.9517C43.0059 11.6061 42.5163 11.4333 41.9307 11.4333Z" fill="#BBC3CF"/>
<path d="M49.9237 17.8701C49.2997 17.8701 48.6901 17.7885 48.0949 17.6253C47.4997 17.4621 47.0245 17.2557 46.6693 17.0061L47.3605 15.6381C47.7061 15.8685 48.1189 16.0557 48.5989 16.1997C49.0885 16.3341 49.5685 16.4013 50.0389 16.4013C51.1141 16.4013 51.6517 16.1181 51.6517 15.5517C51.6517 15.2829 51.5125 15.0957 51.2341 14.9901C50.9653 14.8845 50.5285 14.7837 49.9237 14.6877C49.2901 14.5917 48.7717 14.4813 48.3685 14.3565C47.9749 14.2317 47.6293 14.0157 47.3317 13.7085C47.0437 13.3917 46.8997 12.9549 46.8997 12.3981C46.8997 11.6685 47.2021 11.0877 47.8069 10.6557C48.4213 10.2141 49.2469 9.99328 50.2837 9.99328C50.8117 9.99328 51.3397 10.0557 51.8677 10.1805C52.3957 10.2957 52.8277 10.4541 53.1637 10.6557L52.4725 12.0237C51.8197 11.6397 51.0853 11.4477 50.2693 11.4477C49.7413 11.4477 49.3381 11.5293 49.0597 11.6925C48.7909 11.8461 48.6565 12.0525 48.6565 12.3117C48.6565 12.5997 48.8005 12.8061 49.0885 12.9309C49.3861 13.0461 49.8421 13.1565 50.4565 13.2621C51.0709 13.3581 51.5749 13.4685 51.9685 13.5933C52.3621 13.7181 52.6981 13.9293 52.9765 14.2269C53.2645 14.5245 53.4085 14.9469 53.4085 15.4941C53.4085 16.2141 53.0965 16.7901 52.4725 17.2221C51.8485 17.6541 50.9989 17.8701 49.9237 17.8701Z" fill="#BBC3CF"/>
<path d="M62.1875 13.9677C62.1875 14.0925 62.1779 14.2701 62.1587 14.5005H56.1251C56.2307 15.0669 56.5043 15.5181 56.9459 15.8541C57.3971 16.1805 57.9539 16.3437 58.6163 16.3437C59.4611 16.3437 60.1571 16.0653 60.7043 15.5085L61.6691 16.6173C61.3235 17.0301 60.8867 17.3421 60.3587 17.5533C59.8307 17.7645 59.2355 17.8701 58.5731 17.8701C57.7283 17.8701 56.9843 17.7021 56.3411 17.3661C55.6979 17.0301 55.1987 16.5645 54.8434 15.9693C54.4978 15.3645 54.325 14.6829 54.325 13.9245C54.325 13.1757 54.493 12.5037 54.8291 11.9085C55.1747 11.3037 55.6499 10.8333 56.2547 10.4973C56.8595 10.1613 57.5411 9.99328 58.2995 9.99328C59.0483 9.99328 59.7155 10.1613 60.3011 10.4973C60.8963 10.8237 61.3571 11.2893 61.6835 11.8941C62.0195 12.4893 62.1875 13.1805 62.1875 13.9677ZM58.2995 11.4333C57.7235 11.4333 57.2339 11.6061 56.8307 11.9517C56.4371 12.2877 56.1971 12.7389 56.1107 13.3053H60.4739C60.3971 12.7485 60.1619 12.2973 59.7683 11.9517C59.3747 11.6061 58.8851 11.4333 58.2995 11.4333Z" fill="#BBC3CF"/>
<path d="M67.4445 17.8701C66.6477 17.8701 65.9325 17.7021 65.2989 17.3661C64.6653 17.0301 64.1709 16.5645 63.8157 15.9693C63.4605 15.3645 63.2829 14.6829 63.2829 13.9245C63.2829 13.1661 63.4605 12.4893 63.8157 11.8941C64.1709 11.2989 64.6605 10.8333 65.2845 10.4973C65.9181 10.1613 66.6381 9.99328 67.4445 9.99328C68.2029 9.99328 68.8653 10.1469 69.4317 10.4541C70.0077 10.7613 70.4397 11.2029 70.7277 11.7789L69.3453 12.5853C69.1245 12.2301 68.8461 11.9661 68.5101 11.7933C68.1837 11.6109 67.8237 11.5197 67.4301 11.5197C66.7581 11.5197 66.2013 11.7405 65.7597 12.1821C65.3181 12.6141 65.0973 13.1949 65.0973 13.9245C65.0973 14.6541 65.3133 15.2397 65.7453 15.6813C66.1869 16.1133 66.7485 16.3293 67.4301 16.3293C67.8237 16.3293 68.1837 16.2429 68.5101 16.0701C68.8461 15.8877 69.1245 15.6189 69.3453 15.2637L70.7277 16.0701C70.4301 16.6461 69.9933 17.0925 69.4173 17.4093C68.8509 17.7165 68.1933 17.8701 67.4445 17.8701Z" fill="#BBC3CF"/>
<path d="M79.7285 10.0797V17.7693H78.0149V16.7901C77.7269 17.1357 77.3669 17.4045 76.9349 17.5965C76.5029 17.7789 76.0373 17.8701 75.5381 17.8701C74.5109 17.8701 73.6997 17.5869 73.1045 17.0205C72.5189 16.4445 72.2261 15.5949 72.2261 14.4717V10.0797H74.0261V14.2269C74.0261 14.9181 74.1797 15.4365 74.4869 15.7821C74.8037 16.1181 75.2501 16.2861 75.8261 16.2861C76.4693 16.2861 76.9781 16.0893 77.3525 15.6957C77.7365 15.2925 77.9285 14.7165 77.9285 13.9677V10.0797H79.7285Z" fill="#BBC3CF"/>
<path d="M83.7989 11.2029C84.3173 10.3965 85.2293 9.99328 86.5349 9.99328V11.7069C86.3813 11.6781 86.2421 11.6637 86.1173 11.6637C85.4165 11.6637 84.8693 11.8701 84.4757 12.2829C84.0821 12.6861 83.8853 13.2717 83.8853 14.0397V17.7693H82.0853V10.0797H83.7989V11.2029Z" fill="#BBC3CF"/>
<path d="M92.3243 9.99328C93.0731 9.99328 93.7403 10.1565 94.3259 10.4829C94.9211 10.8093 95.3867 11.2701 95.7227 11.8653C96.0587 12.4605 96.2267 13.1469 96.2267 13.9245C96.2267 14.7021 96.0587 15.3933 95.7227 15.9981C95.3867 16.5933 94.9211 17.0541 94.3259 17.3805C93.7403 17.7069 93.0731 17.8701 92.3243 17.8701C91.7963 17.8701 91.3115 17.7789 90.8699 17.5965C90.4379 17.4141 90.0731 17.1405 89.7755 16.7757V17.7693H88.0619V7.08447H89.8619V11.0157C90.1691 10.6797 90.5291 10.4253 90.9419 10.2525C91.3643 10.0797 91.8251 9.99328 92.3243 9.99328ZM92.1227 16.3293C92.7851 16.3293 93.3275 16.1085 93.7499 15.6669C94.1819 15.2253 94.3979 14.6445 94.3979 13.9245C94.3979 13.2045 94.1819 12.6237 93.7499 12.1821C93.3275 11.7405 92.7851 11.5197 92.1227 11.5197C91.6907 11.5197 91.3019 11.6205 90.9563 11.8221C90.6107 12.0141 90.3371 12.2925 90.1355 12.6573C89.9339 13.0221 89.8331 13.4445 89.8331 13.9245C89.8331 14.4045 89.9339 14.8269 90.1355 15.1917C90.3371 15.5565 90.6107 15.8397 90.9563 16.0413C91.3019 16.2333 91.6907 16.3293 92.1227 16.3293Z" fill="#BBC3CF"/>
<defs>
<clipPath id="clip0_336_1591">
<rect width="26.4001" height="24.0001" fill="white" transform="translate(0.302734 0.669189)"/>
</clipPath>
</defs>
</svg>
