<svg width="93" height="25" viewBox="0 0 93 25" fill="none" xmlns="http://www.w3.org/2000/svg">
<g clip-path="url(#clip0_336_1590)">
<path fill-rule="evenodd" clip-rule="evenodd" d="M14.1748 24.2119C16.7722 23.9086 19.1914 22.7376 21.0405 20.8885C22.8896 19.0394 24.0606 16.6203 24.3638 14.0228H19.9985C19.7231 15.4644 19.0205 16.7897 17.9819 17.8266C16.9433 18.8635 15.6168 19.564 14.1748 19.837V24.2119Z" fill="#BBC3CF"/>
<path fill-rule="evenodd" clip-rule="evenodd" d="M18.0528 2.29223L18.0802 2.27425C20.9049 0.6512 23.1889 0.173928 24.2524 1.23828C27.2608 4.24575 18.7771 13.6005 16.264 16.1137C14.7526 17.6295 13.151 19.0525 11.4678 20.3749V24.209C10.1145 24.0554 8.79967 23.6609 7.58533 23.0443L7.55787 23.0623C4.73316 24.6853 2.45013 25.1626 1.38578 24.1039C-0.0725009 22.6456 1.63384 19.2888 2.44063 17.9034C1.82781 16.6875 1.43358 15.3734 1.27592 14.021H5.65073C5.84203 15.0363 6.24671 15.9996 6.83796 16.8469C7.42921 17.6943 8.19358 18.4065 9.08055 18.9365C8.57583 19.303 8.06258 19.6514 7.53041 19.9781C6.75108 20.4734 5.94431 20.9412 5.10911 21.3625C4.45547 20.7837 3.87082 20.1314 3.36676 19.4185C2.48611 21.1154 2.19256 22.3625 2.66035 22.8274C4.6688 24.816 13.7025 16.518 15.1883 15.0323C16.7701 13.4526 18.2496 11.7737 19.618 10.006C19.1671 8.85361 18.4306 7.83487 17.4776 7.04554C16.5246 6.25621 15.3865 5.72224 14.1703 5.49382V1.11897C15.5238 1.27125 16.8389 1.66578 18.0528 2.2837V2.29223ZM22.2713 5.91521C23.152 4.2183 23.4455 2.97119 22.9777 2.50624C22.51 2.0413 21.2733 2.34148 19.5754 3.22213C20.6192 3.96287 21.5306 4.87428 22.2713 5.91805V5.91521Z" fill="#BBC3CF"/>
<path fill-rule="evenodd" clip-rule="evenodd" d="M11.4698 1.12744C8.87227 1.43089 6.45318 2.60205 4.60405 4.45135C2.75492 6.30065 1.58397 8.71987 1.28076 11.3174H5.65562C5.92724 9.87572 6.62742 8.54947 7.66471 7.51202C8.702 6.47456 10.0281 5.77413 11.4698 5.50228V1.12744Z" fill="#BBC3CF"/>
</g>
<path d="M44.6272 15.4476C44.6272 15.9533 44.5306 16.4306 44.3374 16.8795C44.1499 17.3226 43.8885 17.7118 43.5533 18.0471C43.2237 18.3766 42.8345 18.638 42.3857 18.8312C41.9425 19.0187 41.4681 19.1124 40.9624 19.1124C40.5078 19.1124 40.0703 19.0329 39.6499 18.8738C39.2351 18.7147 38.8601 18.4817 38.5249 18.1749C38.1896 18.4817 37.8118 18.7147 37.3913 18.8738C36.9709 19.0329 36.5334 19.1124 36.0788 19.1124C35.5732 19.1124 35.0959 19.0187 34.647 18.8312C34.2038 18.638 33.8146 18.3766 33.4794 18.0471C33.1499 17.7118 32.8885 17.3226 32.6953 16.8795C32.5078 16.4306 32.4141 15.9533 32.4141 15.4476V6.72034H34.8601V15.4476C34.8601 15.6181 34.8913 15.78 34.9538 15.9334C35.0163 16.0812 35.1016 16.2118 35.2095 16.3255C35.3232 16.4334 35.4538 16.5187 35.6016 16.5812C35.7493 16.6437 35.9084 16.6749 36.0788 16.6749C36.2493 16.6749 36.4084 16.6437 36.5561 16.5812C36.7038 16.5187 36.8317 16.4334 36.9396 16.3255C37.0533 16.2118 37.1413 16.0812 37.2038 15.9334C37.2663 15.78 37.2976 15.6181 37.2976 15.4476V6.72034H39.7436V15.4476C39.7436 15.6181 39.7749 15.78 39.8374 15.9334C39.8999 16.0812 39.9851 16.2118 40.0931 16.3255C40.2067 16.4334 40.3374 16.5187 40.4851 16.5812C40.6328 16.6437 40.7919 16.6749 40.9624 16.6749C41.1328 16.6749 41.2919 16.6437 41.4397 16.5812C41.5874 16.5187 41.7152 16.4334 41.8232 16.3255C41.9368 16.2118 42.0249 16.0812 42.0874 15.9334C42.1556 15.78 42.1897 15.6181 42.1897 15.4476V6.72034H44.6272V15.4476Z" fill="#BBC3CF"/>
<path d="M49.3147 7.33398C49.3147 7.54989 49.2721 7.75159 49.1868 7.93909C49.1073 8.12659 48.9965 8.29137 48.8544 8.43341C48.7124 8.56978 48.5448 8.68057 48.3516 8.7658C48.1641 8.84534 47.9624 8.88512 47.7465 8.88512C47.5306 8.88512 47.326 8.84534 47.1328 8.7658C46.9453 8.68057 46.7806 8.56978 46.6385 8.43341C46.5022 8.29137 46.3914 8.12659 46.3061 7.93909C46.2266 7.75159 46.1868 7.54989 46.1868 7.33398C46.1868 7.12375 46.2266 6.92489 46.3061 6.73738C46.3914 6.5442 46.5022 6.37943 46.6385 6.24307C46.7806 6.10102 46.9453 5.99022 47.1328 5.91068C47.326 5.82545 47.5306 5.78284 47.7465 5.78284C47.9624 5.78284 48.1641 5.82545 48.3516 5.91068C48.5448 5.99022 48.7124 6.10102 48.8544 6.24307C48.9965 6.37943 49.1073 6.5442 49.1868 6.73738C49.2721 6.92489 49.3147 7.12375 49.3147 7.33398ZM48.9141 18.942H46.5703V9.8141H48.9141V18.942Z" fill="#BBC3CF"/>
<path d="M55.7067 18.942H50.3885V16.6238H55.7067C55.8658 16.6238 56.0022 16.567 56.1158 16.4533C56.2295 16.3397 56.2863 16.2033 56.2863 16.0442C56.2863 15.8795 56.2295 15.7715 56.1158 15.7204C56.0022 15.6692 55.8658 15.6437 55.7067 15.6437H53.2863C52.8829 15.6437 52.505 15.567 52.1527 15.4135C51.8005 15.2601 51.4937 15.0527 51.2323 14.7914C50.9709 14.5243 50.7635 14.2147 50.6101 13.8624C50.4624 13.5101 50.3885 13.1323 50.3885 12.7289C50.3885 12.3255 50.4624 11.9476 50.6101 11.5954C50.7635 11.2431 50.9709 10.9363 51.2323 10.6749C51.4937 10.4135 51.8005 10.209 52.1527 10.0613C52.505 9.90785 52.8829 9.83114 53.2863 9.83114H57.9994V12.1493H53.2863C53.1272 12.1493 52.9908 12.2061 52.8772 12.3198C52.7635 12.4334 52.7067 12.5698 52.7067 12.7289C52.7067 12.8937 52.7635 13.0357 52.8772 13.155C52.9908 13.2687 53.1272 13.3255 53.2863 13.3255H55.7067C56.1045 13.3255 56.4795 13.3937 56.8317 13.53C57.184 13.6607 57.4908 13.8454 57.7522 14.084C58.0136 14.3226 58.2209 14.6096 58.3744 14.9448C58.5278 15.28 58.6045 15.6465 58.6045 16.0442C58.6045 16.4476 58.5278 16.8255 58.3744 17.1778C58.2209 17.5243 58.0136 17.8312 57.7522 18.0982C57.4908 18.3596 57.184 18.567 56.8317 18.7204C56.4795 18.8681 56.1045 18.942 55.7067 18.942Z" fill="#BBC3CF"/>
<path d="M62.1755 18.942H59.8488V6.18341H62.1755V10.2147C62.4539 10.0044 62.7408 9.85671 63.0363 9.77148C63.3318 9.68057 63.6329 9.63512 63.9397 9.63512C64.5022 9.63512 65.0306 9.74307 65.5249 9.95898C66.0193 10.1692 66.4482 10.4618 66.8119 10.8368C67.1812 11.2061 67.471 11.6408 67.6812 12.1408C67.8971 12.6351 68.0051 13.1635 68.0051 13.726V18.942H65.6613V13.726H65.6784C65.6784 13.4874 65.6329 13.263 65.542 13.0527C65.4511 12.8368 65.3261 12.6493 65.167 12.4902C65.0079 12.3311 64.8232 12.2061 64.613 12.1152C64.4028 12.0243 64.1783 11.9789 63.9397 11.9789C63.6954 11.9789 63.4653 12.0243 63.2494 12.1152C63.0335 12.2061 62.846 12.3311 62.6869 12.4902C62.5278 12.6493 62.4028 12.8368 62.3119 13.0527C62.221 13.263 62.1755 13.4874 62.1755 13.726V18.942Z" fill="#BBC3CF"/>
<path d="M73.2977 16.709C73.3886 16.7374 73.4795 16.7573 73.5704 16.7687C73.6613 16.7743 73.7522 16.7772 73.8431 16.7772C74.0704 16.7772 74.2892 16.7459 74.4994 16.6834C74.7096 16.6209 74.9056 16.5329 75.0875 16.4192C75.275 16.2999 75.4397 16.1579 75.5818 15.9931C75.7295 15.8226 75.8488 15.6351 75.9397 15.4306L77.6443 17.1437C77.4284 17.4505 77.1784 17.726 76.8943 17.9704C76.6159 18.2147 76.3119 18.4221 75.9824 18.5925C75.6585 18.763 75.3147 18.8908 74.9511 18.9761C74.5931 19.067 74.2238 19.1124 73.8431 19.1124C73.2011 19.1124 72.596 18.9931 72.0278 18.7545C71.4653 18.5158 70.971 18.1834 70.5448 17.7573C70.1244 17.3312 69.792 16.8255 69.5477 16.2402C69.3034 15.6493 69.1812 15.0016 69.1812 14.2971C69.1812 13.5755 69.3034 12.9164 69.5477 12.3198C69.792 11.7232 70.1244 11.2147 70.5448 10.7942C70.971 10.3738 71.4653 10.0471 72.0278 9.8141C72.596 9.58114 73.2011 9.46466 73.8431 9.46466C74.2238 9.46466 74.596 9.51012 74.9596 9.60103C75.3233 9.69194 75.667 9.82262 75.9909 9.99307C76.3204 10.1635 76.6272 10.3738 76.9113 10.6238C77.1954 10.8681 77.4454 11.1436 77.6613 11.4505L73.2977 16.709ZM74.4909 11.9107C74.3829 11.8709 74.275 11.8454 74.167 11.834C74.0647 11.8226 73.9568 11.8169 73.8431 11.8169C73.525 11.8169 73.2238 11.8766 72.9397 11.9959C72.6613 12.1096 72.417 12.2743 72.2068 12.4902C72.0022 12.7062 71.8403 12.9675 71.721 13.2743C71.6017 13.5755 71.542 13.9164 71.542 14.2971C71.542 14.3823 71.5448 14.4789 71.5505 14.5868C71.5619 14.6948 71.5761 14.8056 71.5931 14.9192C71.6159 15.0272 71.6414 15.1323 71.6698 15.2346C71.6983 15.3368 71.7352 15.4277 71.7806 15.5073L74.4909 11.9107Z" fill="#BBC3CF"/>
<path d="M81.1812 18.942H78.8375V6.18341H81.1812V18.942Z" fill="#BBC3CF"/>
<path d="M85.3062 22.4192H82.9625V9.8141H83.525L84.454 10.9135C84.6642 10.7147 84.8943 10.5272 85.1443 10.351C85.3943 10.1749 85.6528 10.0243 85.9199 9.89932C86.1926 9.76864 86.4739 9.66637 86.7636 9.59251C87.0534 9.51864 87.346 9.48171 87.6415 9.48171C88.2835 9.48171 88.8858 9.59819 89.4483 9.83114C90.0165 10.0584 90.5108 10.3823 90.9313 10.8027C91.3574 11.2232 91.6926 11.7317 91.9369 12.3283C92.1813 12.9192 92.3034 13.5755 92.3034 14.2971C92.3034 15.0471 92.1813 15.7232 91.9369 16.3255C91.6926 16.9221 91.3574 17.4306 90.9313 17.851C90.5108 18.2658 90.0165 18.584 89.4483 18.8056C88.8858 19.0272 88.2835 19.138 87.6415 19.138C87.4369 19.138 87.2324 19.1153 87.0278 19.0698C86.829 19.0243 86.6301 18.9647 86.4312 18.8908C86.2381 18.8113 86.0449 18.7232 85.8517 18.6266C85.6642 18.53 85.4824 18.4306 85.3062 18.3283V22.4192ZM89.9682 14.2971C89.9682 13.9107 89.9057 13.5641 89.7807 13.2573C89.6614 12.9505 89.4966 12.6919 89.2864 12.4817C89.0761 12.2658 88.829 12.101 88.5449 11.9874C88.2608 11.8738 87.9597 11.8169 87.6415 11.8169C87.3233 11.8169 87.0222 11.8738 86.7381 11.9874C86.4597 12.101 86.2153 12.2658 86.0051 12.4817C85.7949 12.6919 85.6273 12.9505 85.5023 13.2573C85.3829 13.5641 85.3233 13.9107 85.3233 14.2971C85.3233 14.6664 85.3829 15.0045 85.5023 15.3113C85.6273 15.6181 85.7949 15.8795 86.0051 16.0954C86.2153 16.3113 86.4597 16.4789 86.7381 16.5982C87.0222 16.7175 87.3233 16.7772 87.6415 16.7772C87.9597 16.7772 88.2608 16.7175 88.5449 16.5982C88.829 16.4789 89.0761 16.3113 89.2864 16.0954C89.4966 15.8795 89.6614 15.6181 89.7807 15.3113C89.9057 15.0045 89.9682 14.6664 89.9682 14.2971Z" fill="#BBC3CF"/>
<defs>
<clipPath id="clip0_336_1590">
<rect width="24.0711" height="24.0001" fill="white" transform="translate(0.820312 0.669189)"/>
</clipPath>
</defs>
</svg>
