<svg width="102" height="25" viewBox="0 0 102 25" fill="none" xmlns="http://www.w3.org/2000/svg">
<g clip-path="url(#clip0_336_1588)">
<path fill-rule="evenodd" clip-rule="evenodd" d="M2.46876 23.1358L4.57331 21.9292L5.41828 21.4443L6.24784 20.966L7.54944 20.2201L9.61662 19.0398L11.6859 20.2201L12.9854 20.966L13.8148 21.4443L14.6621 21.9292L16.7226 23.1183L17.3491 23.4737L17.9602 23.8225L19.2001 24.5333V13.1118L16.7226 11.688V20.2903L15.0459 19.325L12.575 17.9121L11.6329 17.3636L10.8565 16.9249V2.74121H8.3789V17.2627L6.65816 18.2522L4.1895 19.676L2.46876 20.6567V11.7055L0 13.1206V24.5509L1.23104 23.8401L1.84882 23.4912L2.46876 23.1358ZM15.0437 17.3549V0.178711H12.5728V15.942L15.0437 17.3549ZM6.66042 16.2711V5.30152H4.19166V17.6949L6.66042 16.2711Z" fill="#BBC3CF"/>
</g>
<path d="M29.6675 17.7691H31.8254L33.8146 10.9219H33.8965L35.8908 17.7691H38.0487L41.0453 7.29638H38.6266L36.8931 14.5884H36.801L34.8936 7.29638H32.8226L30.9101 14.5731H30.8232L29.0896 7.29638H26.6709L29.6675 17.7691Z" fill="#BBC3CF"/>
<path d="M42.2304 17.7691H49.3077V15.9435H44.4446V13.443H48.9242V11.6174H44.4446V9.12195H49.2872V7.29638H42.2304V17.7691Z" fill="#BBC3CF"/>
<path d="M51.0476 17.7691H57.7516V15.9435H53.2618V7.29638H51.0476V17.7691Z" fill="#BBC3CF"/>
<path d="M57.2683 7.29638L61.0882 14.0668V17.7691H63.2871V14.0668L67.107 7.29638H64.6269L62.2388 11.8066H62.1365L59.7485 7.29638H57.2683Z" fill="#BBC3CF"/>
<path d="M68.5784 9.12195H71.7847V17.7691H73.9733V9.12195H77.1796V7.29638H68.5784V9.12195Z" fill="#BBC3CF"/>
<path d="M80.8102 7.29638H78.596V17.7691H80.8102V7.29638Z" fill="#BBC3CF"/>
<path d="M91.8723 10.9629C91.5808 8.54411 89.7502 7.1532 87.3263 7.1532C84.5598 7.1532 82.4479 9.10661 82.4479 12.5327C82.4479 15.9487 84.524 17.9123 87.3263 17.9123C90.011 17.9123 91.632 16.1276 91.8723 14.1998L89.6325 14.1896C89.4229 15.3094 88.5433 15.9538 87.3621 15.9538C85.7717 15.9538 84.6928 14.7725 84.6928 12.5327C84.6928 10.3543 85.7564 9.11172 87.3774 9.11172C88.5894 9.11172 89.4638 9.81229 89.6325 10.9629H91.8723Z" fill="#BBC3CF"/>
<path d="M99.1413 10.3083H101.264C101.233 8.44183 99.6987 7.1532 97.3669 7.1532C95.0709 7.1532 93.3885 8.42138 93.3987 10.3237C93.3936 11.868 94.4828 12.7526 96.2521 13.1771L97.3925 13.4634C98.5328 13.7396 99.1669 14.0668 99.172 14.7725C99.1669 15.5396 98.4408 16.0612 97.3158 16.0612C96.1652 16.0612 95.3368 15.5293 95.2652 14.481H93.1226C93.1788 16.7464 94.7999 17.9174 97.3413 17.9174C99.8982 17.9174 101.402 16.6952 101.407 14.7776C101.402 13.0339 100.087 12.1083 98.2669 11.6992L97.326 11.4742C96.4158 11.2646 95.6538 10.9271 95.6692 10.1754C95.6692 9.50036 96.2675 9.00433 97.3516 9.00433C98.4101 9.00433 99.0595 9.48502 99.1413 10.3083Z" fill="#BBC3CF"/>
<defs>
<clipPath id="clip0_336_1588">
<rect width="19.2" height="24" fill="white" transform="translate(0 0.669189)"/>
</clipPath>
</defs>
</svg>
